HIERARCHY
ROOT root
{
	OFFSET	0	13.1	24.9
	CHANNELS 6  Xposition Yposition Zposition Xrotation Yrotation Zrotation
	JOINT spine_1
	{
		OFFSET	0	9.99999	0
		CHANNELS 3  Xrotation Yrotation Zrotation
		JOINT spine_2
		{
			OFFSET	0	112	-10
			CHANNELS 3  Xrotation Yrotation Zrotation
			JOINT spine_3
			{
				OFFSET	0	206.5	19.3
				CHANNELS 3  Xrotation Yrotation Zrotation
				JOINT spine_4
				{
					OFFSET	0	110.4	14.6
					CHANNELS 3  Xrotation Yrotation Zrotation
					JOINT neck_1
					{
						OFFSET	0	71.8	-50.3
						CHANNELS 3  Xrotation Yrotation Zrotation
						JOINT neck_2
						{
							OFFSET	0	86.2	-25.8
							CHANNELS 3  Xrotation Yrotation Zrotation
							JOINT head_ee
							{
								OFFSET	0	179.8	-8.7
								CHANNELS 3  Xrotation Yrotation Zrotation
								End Site
								{
									OFFSET	1	0	0
								}
							}
						}
					}
					JOINT left_clavicle
					{
						OFFSET	-43.2	22.4	-70.8
						CHANNELS 3  Xrotation Yrotation Zrotation
						JOINT left_shoulder
						{
							OFFSET	-93.9	-5.79999	48.7
							CHANNELS 3  Xrotation Yrotation Zrotation
							JOINT left_elbow
							{
								OFFSET	-291.4	-30.8	15.2
								CHANNELS 3  Xrotation Yrotation Zrotation
								JOINT left_lowarm_twist
								{
									OFFSET	-110.7	-3.89999	13.6
									CHANNELS 3  Xrotation Yrotation Zrotation
									JOINT left_hand
									{
										OFFSET	-110.7	-3.89999	13.6
										CHANNELS 3  Xrotation Yrotation Zrotation
										JOINT left_ee
										{
											OFFSET	-80.8	-5.10001	12.1
											CHANNELS 3  Xrotation Yrotation Zrotation
											End Site
											{
												OFFSET	1	0	0
											}
										}
									}
								}
							}
						}
					}
					JOINT right_clavicle
					{
						OFFSET	43.2	22.4	-70.8
						CHANNELS 3  Xrotation Yrotation Zrotation
						JOINT right_shoulder
						{
							OFFSET	93.9	-5.79999	48.7
							CHANNELS 3  Xrotation Yrotation Zrotation
							JOINT right_elbow
							{
								OFFSET	291.4	-30.8	15.2
								CHANNELS 3  Xrotation Yrotation Zrotation
								JOINT right_lowarm_twist
								{
									OFFSET	110.7	-3.89999	13.6
									CHANNELS 3  Xrotation Yrotation Zrotation
									JOINT right_hand
									{
										OFFSET	110.7	-3.89999	13.6
										CHANNELS 3  Xrotation Yrotation Zrotation
										JOINT right_ee
										{
											OFFSET	80.8	-5.10001	12.1
											CHANNELS 3  Xrotation Yrotation Zrotation
											End Site
											{
												OFFSET	1	0	0
											}
										}
									}
								}
							}
						}
					}
				}
			}
		}
	}
	JOINT left_hip
	{
		OFFSET	-82.8	-127.5	0.300001
		CHANNELS 3  Xrotation Yrotation Zrotation
		JOINT left_knee
		{
			OFFSET	-28.2	-396.7	2.2
			CHANNELS 3  Xrotation Yrotation Zrotation
			JOINT left_ankle
			{
				OFFSET	-11.7	-411.3	35.4
				CHANNELS 3  Xrotation Yrotation Zrotation
				JOINT left_toes
				{
					OFFSET	0	-60	-88.6
					CHANNELS 3  Xrotation Yrotation Zrotation
					JOINT left_foot_ee
					{
						OFFSET	-22.5	-16.5	-42.2
						CHANNELS 3  Xrotation Yrotation Zrotation
						End Site
						{
							OFFSET	1	0	0
						}
					}
				}
			}
		}
	}
	JOINT right_hip
	{
		OFFSET	82.8	-127.5	0.300001
		CHANNELS 3  Xrotation Yrotation Zrotation
		JOINT right_knee
		{
			OFFSET	28.2	-396.7	2.2
			CHANNELS 3  Xrotation Yrotation Zrotation
			JOINT right_ankle
			{
				OFFSET	11.7	-411.3	35.4
				CHANNELS 3  Xrotation Yrotation Zrotation
				JOINT right_toes
				{
					OFFSET	0	-60	-88.6
					CHANNELS 3  Xrotation Yrotation Zrotation
					JOINT right_foot_ee
					{
						OFFSET	22.5	-16.5	-42.2
						CHANNELS 3  Xrotation Yrotation Zrotation
						End Site
						{
							OFFSET	1	0	0
						}
					}
				}
			}
		}
	}
}
MOTION
Frames: 6
Frame Time: 0.02
3766.78 640.824 -452.798 -9.12811 54.0567 4.47564 -0.796966 0.416526 1.62571 -0.79555 0.312248 1.64891 -0.785322 -0.0642528 1.67698 -0.78919 0.201364 1.66609 5.55918 9.37542 -0.58155 5.91557 16.5257 -0.304121 -0.0 0.0 -0.0 0.234392 11.6171 1.76829 -7.07775 21.3946 77.1888 0.208385 -5.89379 0.0107273 18.2586 0.278019 -2.30595 2.51356 9.3203 20.5123 -0.0 0.0 -0.0 12.0138 25.7275 -23.443 -3.04297 14.619 -51.9297 1.2186 31.1164 -0.339292 13.4261 -0.276288 1.68891 1.80751 21.0252 -3.00943 0.0 0.0 0.0 36.9545 16.9219 -4.62287 -6.73616 0.218164 1.01019 0.846721 -3.04214 -0.126155 -7.05076 0.0 0.0 -0.0 0.0 -0.0 -17.3323 12.5688 10.7215 -5.05971 -0.175006 -0.756543 37.6937 -16.7758 4.74748 8.4745 -0.0 -0.0 0.0 0.0 0.0 
3741.87 642.219 -452.166 -9.93769 54.1407 4.24092 -0.443882 0.323881 1.91307 -0.441868 0.201515 1.92979 -0.433732 -0.223226 1.9274 -0.438906 0.0839144 1.93847 6.0377 8.85761 0.297295 6.3158 14.8056 0.660994 -0.0 0.0 -0.0 0.824986 9.06881 2.51394 -5.85021 22.7379 75.7791 0.19061 -5.39417 0.00897928 18.9539 0.273986 -2.39467 2.47295 10.5993 20.6657 -0.0 0.0 -0.0 12.0397 25.6574 -23.5101 -1.70685 12.0572 -52.748 1.2212 31.1705 -0.34064 11.3858 -0.259938 1.42882 2.14188 22.5224 -4.50719 0.0 0.0 0.0 36.2594 15.7198 -2.67893 -7.18523 0.228462 1.07833 -0.129495 0.111657 0.0191575 -6.18514 0.0 0.0 -0.0 0.0 -0.0 -17.9973 12.3449 12.0083 -3.73285 -0.135594 -0.55673 40.4391 -24.2802 5.1867 11.1898 -0.0 -0.0 0.0 0.0 0.0 
3714.66 647.116 -460.7 -8.71409 52.3153 3.46354 -0.418258 0.38702 1.98611 -0.416101 0.259881 2.0067 -0.405508 -0.181972 2.01526 -0.411149 0.138517 2.01871 5.60193 8.87523 -0.0824318 5.89475 15.2267 0.257088 -0.0 0.0 -0.0 1.54021 8.10506 3.68126 -5.67325 21.4218 74.2965 0.199523 -5.64478 0.00983646 19.526 0.26986 -2.46763 2.45317 11.0855 20.692 -0.0 0.0 -0.0 12.1996 24.9802 -23.9497 -4.08004 13.179 -52.9346 1.36735 34.1097 -0.41949 12.38 -0.269062 1.55549 1.89804 22.8369 -2.76059 0.0 0.0 0.0 35.2409 16.9567 -4.18669 -10.0318 0.281282 1.5119 -0.0267039 0.163255 0.00394906 -5.81289 0.0 0.0 -0.0 0.0 -0.0 -19.3646 12.6209 12.784 -3.6188 -0.13199 -0.539598 39.441 -24.2159 5.08929 11.4502 -0.0 -0.0 0.0 0.0 0.0 
3693.55 650.64 -467.784 -9.55587 51.6405 4.21385 -0.233527 0.20019 2.22701 -0.23077 0.0581102 2.23523 -0.227042 -0.421878 2.19585 -0.233764 -0.0698804 2.2349 4.57807 8.56273 1.09955 4.78484 13.7914 1.68963 -0.0 0.0 -0.0 1.42815 5.55624 3.2599 -2.78928 22.3281 73.246 0.232634 -6.57392 0.0133605 19.9561 0.266279 -2.52244 2.46455 11.9062 21.0405 -0.0 0.0 -0.0 12.4874 22.8562 -24.823 -2.97877 11.167 -54.3716 1.33564 33.4885 -0.401854 10.4676 -0.24956 1.312 2.2665 24.5794 -4.33339 0.0 0.0 0.0 34.0946 16.3571 -4.14782 -10.0018 0.280837 1.50732 -0.713371 0.623138 0.105552 -5.60773 0.0 0.0 -0.0 0.0 -0.0 -18.7661 12.399 12.9692 -5.55834 -0.188618 -0.831856 40.2222 -25.8138 5.21654 12.0301 -0.0 -0.0 0.0 0.0 0.0 
3674.88 654.302 -473.663 -8.28538 48.9007 3.71358 -0.408754 0.458183 2.13929 -0.406265 0.321158 2.1641 -0.392368 -0.155801 2.18224 -0.398963 0.190713 2.17946 3.80405 9.35753 1.04923 4.04698 15.3176 1.73208 -0.0 0.0 -0.0 1.5392 3.95726 3.32217 -1.19474 21.2207 71.5 0.239697 -6.77169 0.0141813 20.0128 0.265776 -2.52967 2.61661 14.8649 23.0108 -0.0 0.0 -0.0 12.2778 22.6465 -24.3592 -7.6812 17.5557 -53.3711 1.51147 36.8212 -0.503137 14.6509 -0.281651 1.84525 1.45476 22.8322 0.136912 0.0 0.0 0.0 34.6863 18.5884 -7.06579 -14.2029 0.319643 2.1506 1.4868 -0.557432 -0.219436 -5.15915 0.0 0.0 -0.0 0.0 -0.0 -18.7864 12.1929 13.4152 -5.55627 -0.188563 -0.831542 36.6072 -25.7465 4.85283 12.1593 -0.0 -0.0 0.0 0.0 0.0 
3654.1 660.713 -476.913 -7.83446 49.0738 3.41814 -0.484948 0.292381 2.25192 -0.482138 0.148531 2.26595 -0.474473 -0.349768 2.24373 -0.481499 0.00888078 2.27079 2.91788 8.87252 1.35495 3.11146 14.333 2.12315 -0.0 0.0 -0.0 1.74253 3.81485 3.68689 -0.66431 21.2403 70.2863 0.27568 -7.7766 0.0187374 20.1173 0.26483 -2.54298 2.49289 13.0648 21.6078 -0.0 0.0 -0.0 12.448 20.3061 -24.9433 -4.5029 12.8043 -55.711 1.47066 36.0719 -0.47889 10.1091 -0.245 1.26643 2.21742 26.2145 -3.22242 0.0 0.0 0.0 32.2777 17.8921 -5.96108 -13.018 0.313476 1.96892 -0.0347873 0.420578 0.00514122 -5.169 0.0 0.0 -0.0 0.0 -0.0 -17.9478 12.295 13.1413 -8.36489 -0.252966 -1.2577 37.1025 -25.4734 4.89537 12.1332 -0.0 -0.0 0.0 0.0 0.0 
